<svg xmlns="http://www.w3.org/2000/svg" width="401" height="734" fill="none"><path stroke="#D4D4D4" stroke-opacity=".75" d="M-1 552.879h402M-1 532.865h402M-1 512.852h402M-1 492.838h402M-1 632.933h402M-1 612.919h402M-1 592.906h402M-1 572.892h402M-1 392.771h402M-1 372.758h402M-1 472.825h402M-1 452.811h402M-1 432.798h402M-1 412.784l402 .001M-1 712.986l402 .001M-1 692.973h402M-1 672.96h402M-1 652.946h402M-1 733h402M-1 170.121h402M-1 150.108h402M-1 130.094h402M-1 110.081h402M-1 250.175h402M-1 230.162h402M-1 210.148h402M-1 190.135h402M-1 10.014h402M-1-10h402M-1 90.067h402M-1 70.054h402M-1 50.04h402M-1 30.027h402M-1 330.229h402M-1 310.215l402 .001M-1 290.202h402M-1 270.189h402M-1 350.242h402"/></svg>